<svg width="15" height="15" fill="none" xmlns="http://www.w3.org/2000/svg"><path fill-rule="evenodd" clip-rule="evenodd" d="M6.341.059a9.759 9.759 0 00-.856.185c-.22.06-.597.192-.84.292-.243.1-.593.265-.779.367a9.895 9.895 0 00-.779.5 8.81 8.81 0 00-.91.782 9.185 9.185 0 00-.794.922c-.18.25-.453.705-.608 1.012-.154.307-.35.773-.436 1.037-.085.263-.197.684-.248.934C.021 6.433 0 6.789 0 7.53c0 .759.023 1.087.096 1.427.053.243.164.651.247.908.084.257.278.718.432 1.025.155.307.426.76.604 1.006s.536.66.795.922c.26.261.676.62.924.8.25.178.702.45 1.006.605.305.154.779.35 1.054.438.275.087.686.198.915.247.31.067.664.09 1.402.091.754 0 1.096-.021 1.452-.094.256-.052.677-.163.935-.247.258-.084.72-.278 1.027-.433a8.94 8.94 0 001.01-.606c.248-.179.664-.537.923-.797.26-.26.618-.674.797-.92.178-.248.45-.7.604-1.004.154-.304.352-.778.439-1.052.087-.275.198-.687.248-.915.068-.315.09-.66.09-1.427s-.022-1.112-.09-1.427c-.05-.228-.161-.64-.248-.915a8.587 8.587 0 00-.439-1.052 9.182 9.182 0 00-.605-1.006 9.041 9.041 0 00-.8-.923 9.476 9.476 0 00-.923-.795A8.862 8.862 0 0010.89.784a9.13 9.13 0 00-.97-.416A11.32 11.32 0 009.064.13C8.743.057 8.36.02 7.708.006c-.64-.016-1.044 0-1.367.053zm5.041 4.813l.515.499c.04.038.067.089.058.112a7.319 7.319 0 01-.453.5 543.938 543.938 0 00-1.847 1.942L8.384 9.271c-.47.498-1.067 1.123-1.324 1.387l-.468.482-1.375-1.377L3.84 8.387l.532-.531.531-.532.847.845.846.845.198-.223c.109-.122.377-.409.595-.637l1.28-1.348a632.54 632.54 0 011.327-1.4c.245-.259.546-.58.669-.716.122-.136.235-.247.25-.247.014 0 .224.193.466.429z" fill="#D7B56D"/></svg>